<?xml version="1.0" standalone="no"?><!DOCTYPE svg PUBLIC "-//W3C//DTD SVG 1.1//EN" "http://www.w3.org/Graphics/SVG/1.1/DTD/svg11.dtd"><svg t="1605775152640" class="icon" viewBox="0 0 1024 1024" version="1.1" xmlns="http://www.w3.org/2000/svg" p-id="3836" xmlns:xlink="http://www.w3.org/1999/xlink" width="200" height="200"><defs><style type="text/css"></style></defs><path d="M945.777778 334.222222A21.333333 21.333333 0 0 0 924.444444 355.555556v100.949333C924.444444 502.001778 869.077333 540.444444 803.555556 540.444444S682.666667 502.001778 682.666667 456.504889V355.555556a21.333333 21.333333 0 1 0-42.666667 0v100.949333C640 502.001778 584.632889 540.444444 519.111111 540.444444S398.222222 502.001778 398.222222 456.504889V355.555556a21.333333 21.333333 0 0 0-21.333333-21.333334c-2.503111 0-4.878222 0.512-7.111111 1.308445a21.091556 21.091556 0 0 0-7.111111-1.308445A21.333333 21.333333 0 0 0 341.333333 355.555556v100.949333C341.333333 502.001778 285.966222 540.444444 220.444444 540.444444S99.555556 502.001778 99.555556 456.504889V355.555556a21.333333 21.333333 0 1 0-42.666667 0v100.949333c0 40.035556 24.192 75.719111 61.781333 98.944C115.655111 559.118222 113.777778 540.444444 113.777778 540.444444v376.888889A21.333333 21.333333 0 0 0 135.111111 938.666667h739.555556a21.333333 21.333333 0 0 0 21.333333-21.333334V568.888889c0-2.574222-0.526222-5.006222-1.365333-7.296 43.662222-22.755556 72.476444-61.354667 72.476444-105.102222V355.555556a21.333333 21.333333 0 0 0-21.333333-21.333334zM853.333333 896H156.444444V572.999111c19.669333 6.499556 41.301333 10.112 64 10.112 66.545778 0 123.818667-30.961778 149.333334-75.207111C395.292444 552.149333 452.565333 583.111111 519.111111 583.111111c60.928 0 114.076444-25.969778 142.222222-64.312889C689.479111 557.141333 742.627556 583.111111 803.555556 583.111111c17.365333 0 34.076444-2.133333 49.777777-6.044444V896z" fill="#1296db" p-id="3837"></path><path d="M398.222222 696.888889h199.111111v227.555555H398.222222z" fill="#1296db" p-id="3838"></path><path d="M604.444444 938.666667h-199.111111a21.333333 21.333333 0 0 1-21.333333-21.333334v-227.555555a21.333333 21.333333 0 0 1 21.333333-21.333334h199.111111a21.333333 21.333333 0 0 1 21.333334 21.333334v227.555555a21.333333 21.333333 0 0 1-21.333334 21.333334zM426.666667 896h156.444444V711.111111H426.666667v184.888889z" fill="#1296db" p-id="3839"></path><path d="M945.777778 369.777778h-867.555556l113.777778-256h640z" fill="#1296db" p-id="3840"></path><path d="M946.062222 384H78.222222a21.333333 21.333333 0 0 1-19.498666-30.008889l113.777777-256A21.333333 21.333333 0 0 1 192 85.333333h640a21.333333 21.333333 0 0 1 19.498667 12.672l112.455111 253.056A21.304889 21.304889 0 0 1 946.062222 384zM111.047111 341.333333h801.891556L818.133333 128h-612.266666L111.047111 341.333333z" fill="#1296db" p-id="3841"></path></svg>