<?xml version="1.0" standalone="no"?><!DOCTYPE svg PUBLIC "-//W3C//DTD SVG 1.1//EN" "http://www.w3.org/Graphics/SVG/1.1/DTD/svg11.dtd"><svg t="1605504294466" class="icon" viewBox="0 0 1024 1024" version="1.1" xmlns="http://www.w3.org/2000/svg" p-id="5155" xmlns:xlink="http://www.w3.org/1999/xlink" width="200" height="200"><defs><style type="text/css"></style></defs><path d="M426.62 134.23a124.12 124.12 0 0 0-83.9-32.29H190.31a124.77 124.77 0 0 0-82.81 31c-25.77 22.32-40 56.46-40.17 90.26-0.17 34.12 0 68.24 0 102.36v48.87c0 25.3 5.64 50.67 20.27 71.75 22.64 32.62 58.45 53 98.42 54 10.78 0.26 21.58 0 32.36 0h126.15A125.27 125.27 0 0 0 401.26 486c17.14-8.87 30.92-22.27 42.27-37.66 15.59-21.14 21.79-47.42 21.79-73.32V261c0-12.57 0.06-25.15 0-37.72-0.15-33.28-13.84-66.54-38.7-89.05z m-44.83 293.53c-0.56 0.41-1.12 0.81-1.7 1.19a93.09 93.09 0 0 1-11.82 6.71 94.64 94.64 0 0 1-15.61 4.28q-4.05 0.36-8.13 0.41H203c-7.71 0-15.46 0.22-23.15-0.43a94.49 94.49 0 0 1-15.49-4.26 93.09 93.09 0 0 1-11.8-6.66c-0.57-0.38-1.13-0.78-1.69-1.18-2-1.75-4-3.46-5.84-5.34s-3.57-3.82-5.3-5.79c-0.41-0.58-0.82-1.15-1.21-1.74a92.41 92.41 0 0 1-6.68-11.78 95.26 95.26 0 0 1-4.26-15.47c-0.57-6.93-0.43-13.89-0.43-20.85V239c0-8.12-0.26-16.32 0.42-24.42a94.7 94.7 0 0 1 4.27-15.58 91.73 91.73 0 0 1 6.68-11.78c0.39-0.59 0.79-1.16 1.2-1.73 1.74-2 3.45-3.94 5.31-5.81s3.84-3.59 5.82-5.33c0.57-0.4 1.13-0.8 1.71-1.19a91.82 91.82 0 0 1 11.82-6.7 94.15 94.15 0 0 1 15.46-4.26c6.92-0.57 13.86-0.43 20.81-0.43h127.74c8.1 0 16.28-0.26 24.37 0.42a94.74 94.74 0 0 1 15.51 4.27 91.27 91.27 0 0 1 11.83 6.7c0.57 0.39 1.13 0.78 1.68 1.18 2 1.75 4 3.47 5.84 5.34s3.58 3.82 5.3 5.79c0.41 0.58 0.82 1.16 1.21 1.75a92.3 92.3 0 0 1 6.68 11.78 94.37 94.37 0 0 1 4.26 15.48c0.57 6.93 0.43 13.89 0.43 20.86v127.84c0 8.11 0.26 16.31-0.42 24.41a95 95 0 0 1-4.27 15.53 92.41 92.41 0 0 1-6.68 11.78c-0.39 0.59-0.8 1.16-1.2 1.73-1.74 2-3.45 3.94-5.31 5.8s-3.84 3.57-5.83 5.33zM426.62 593a124.14 124.14 0 0 0-83.9-32.29H190.31a124.81 124.81 0 0 0-82.81 31c-25.77 22.33-40 56.46-40.17 90.26-0.17 34.12 0 68.24 0 102.36v48.86c0 25.3 5.64 50.67 20.27 71.75 22.64 32.62 58.45 53 98.42 54 10.78 0.26 21.58 0 32.36 0h126.15a125.31 125.31 0 0 0 56.74-14.21c17.14-8.87 30.91-22.27 42.26-37.66 15.59-21.15 21.79-47.42 21.79-73.33V719.78c0-12.57 0.06-25.14 0-37.72-0.15-33.29-13.84-66.58-38.7-89.06zM381.8 886.5l-1.7 1.19a91.27 91.27 0 0 1-11.83 6.7 94.83 94.83 0 0 1-15.6 4.29c-2.71 0.24-5.42 0.38-8.14 0.4H203c-7.71 0-15.46 0.22-23.15-0.42a95.81 95.81 0 0 1-15.49-4.27 91.82 91.82 0 0 1-11.82-6.7l-1.69-1.18c-2-1.75-4-3.47-5.84-5.34s-3.58-3.82-5.3-5.8c-0.41-0.57-0.82-1.15-1.21-1.74a92.41 92.41 0 0 1-6.68-11.78 94.26 94.26 0 0 1-4.26-15.47c-0.57-6.93-0.43-13.89-0.43-20.85V697.69c0-8.12-0.26-16.32 0.42-24.42a95 95 0 0 1 4.27-15.53 92.41 92.41 0 0 1 6.7-11.74c0.39-0.58 0.79-1.15 1.2-1.72 1.74-2 3.45-4 5.31-5.81s3.84-3.6 5.82-5.33c0.57-0.41 1.13-0.8 1.71-1.19a93.09 93.09 0 0 1 11.82-6.71 96.17 96.17 0 0 1 15.46-4.26c6.92-0.57 13.86-0.43 20.81-0.43h127.74c8.1 0 16.28-0.26 24.37 0.42a95.75 95.75 0 0 1 15.51 4.27 92.52 92.52 0 0 1 11.83 6.71c0.57 0.38 1.13 0.78 1.68 1.18 2 1.75 4 3.46 5.84 5.34s3.58 3.82 5.3 5.79c0.41 0.58 0.82 1.15 1.21 1.74a92.41 92.41 0 0 1 6.68 11.78 94.26 94.26 0 0 1 4.26 15.47c0.57 6.94 0.43 13.9 0.43 20.86v127.8c0 8.12 0.26 16.31-0.42 24.42a95 95 0 0 1-4.27 15.53 92.41 92.41 0 0 1-6.68 11.78c-0.39 0.58-0.79 1.15-1.2 1.72-1.74 2-3.45 3.95-5.31 5.81s-3.84 3.6-5.82 5.33zM883.65 593a124.11 124.11 0 0 0-83.91-32.29H647.33a124.79 124.79 0 0 0-82.81 31c-25.77 22.33-40 56.46-40.17 90.26-0.18 34.12 0 68.24 0 102.36v48.86c0 25.3 5.64 50.67 20.27 71.75 22.63 32.62 58.44 53 98.41 54 10.78 0.26 21.59 0 32.37 0h126.15a125.28 125.28 0 0 0 56.74-14.21c17.14-8.87 30.92-22.27 42.27-37.66 15.59-21.15 21.79-47.42 21.79-73.33V719.78c0-12.57 0.06-25.14 0-37.72-0.15-33.29-13.85-66.58-38.7-89.06z m-44.83 293.5c-0.56 0.4-1.12 0.8-1.7 1.19a91.82 91.82 0 0 1-11.82 6.7 95.67 95.67 0 0 1-15.61 4.29c-2.7 0.24-5.41 0.38-8.14 0.4H660c-7.71 0-15.46 0.22-23.15-0.42a95.41 95.41 0 0 1-15.48-4.27 91.27 91.27 0 0 1-11.83-6.7l-1.69-1.18c-2-1.75-4-3.47-5.83-5.34s-3.58-3.82-5.3-5.79l-1.22-1.74a92.35 92.35 0 0 1-6.67-11.78 94.37 94.37 0 0 1-4.26-15.48c-0.57-6.93-0.43-13.89-0.43-20.85V697.69c0-8.12-0.26-16.32 0.42-24.42a95 95 0 0 1 4.27-15.53 91.22 91.22 0 0 1 6.71-11.74c0.39-0.58 0.79-1.16 1.2-1.73 1.74-2 3.45-3.94 5.31-5.8s3.84-3.6 5.82-5.34c0.57-0.4 1.13-0.8 1.7-1.18a93.21 93.21 0 0 1 11.83-6.71 95.89 95.89 0 0 1 15.46-4.26c6.91-0.57 13.85-0.43 20.8-0.43h127.75c8.11 0 16.28-0.26 24.37 0.42a95.59 95.59 0 0 1 15.52 4.27 93.09 93.09 0 0 1 11.82 6.71c0.57 0.38 1.13 0.78 1.69 1.18 2 1.75 4 3.46 5.84 5.34s3.57 3.82 5.3 5.79c0.41 0.58 0.82 1.15 1.21 1.74a92.41 92.41 0 0 1 6.68 11.78 96.29 96.29 0 0 1 4.26 15.47c0.57 6.94 0.43 13.9 0.43 20.86v127.8c0 8.12 0.26 16.31-0.42 24.42a96 96 0 0 1-4.27 15.53 92.41 92.41 0 0 1-6.68 11.78c-0.39 0.58-0.8 1.15-1.2 1.72-1.74 2-3.45 3.95-5.31 5.81s-3.84 3.59-5.83 5.33zM762 457.32l0.24-0.18 0.38-0.34c-1 0.73-1.65 1.18-2 1.43z" p-id="5156" fill="#1296db"></path><path d="M921.19 211.37c-22.46-22.82-45.23-45.35-67.85-68l-36.69-36.79c-17.09-17.14-36.36-31.06-60.14-37.47-41.51-11.24-86.64 1.11-117.15 31.26-7.42 7.33-14.74 14.78-22.11 22.17q-40.82 40.9-81.62 81.83c-2.35 2.34-4.7 4.67-7 7a127.06 127.06 0 0 0-29 46.72c-12.4 34.37-6.95 76.46 14 106.43 8.63 12.35 19 22.42 29.57 33l42.17 42.28 41.05 41.2c11.79 11.82 23.24 23.74 37.89 32.24a122.59 122.59 0 0 0 59 16.21h1.64c33.36-0.21 64-13.94 87.46-37.43l30.3-30.38 76.38-76.57a148.65 148.65 0 0 0 18-21.73c11.17-16.53 16.77-35.63 19-55.25 4.03-35.32-10.16-71.59-34.9-96.72z m-42.28 129.28c-1.69 1.73-3.41 3.43-5.12 5.14l-28 28.07-68.84 69-8.17 8.19c-2 2-4.06 3.87-6.15 5.74 0.53-0.38 1.16-0.82 1.94-1.35-0.79 0.54-1.55 1.13-2.33 1.69-1 0.86-2.5 1.81-1.58 1.09-1.31 0.88-2.63 1.75-4 2.56-2.54 1.53-5.16 2.91-7.84 4.19a96.71 96.71 0 0 1-15.61 4.3c-2.76 0.24-5.53 0.38-8.32 0.4s-5.55-0.16-8.32-0.4A96 96 0 0 1 701 465c-2-0.93-3.88-1.91-5.77-3-2.69-1.53-8.15-3.9-9.94-6.54-0.27-0.41 5.3 4.39 2.93 2.2-0.58-0.55-1.23-1-1.82-1.56a82.73 82.73 0 0 1-4.11-3.83l-0.82-0.81c-2-2-4-4-5.94-6l-28.63-28.71q-34-34.08-68-68.17c-2.55-2.55-5.11-5.1-7.65-7.66l-0.37-0.37c-1.2-1.23-2.38-2.47-3.53-3.76a42.67 42.67 0 0 0-2.75-3.49l-0.1-0.15q-1.59-2.35-3-4.81c-1.32-2.25-2.52-4.57-3.65-6.92a97.44 97.44 0 0 1-4.4-16 97.42 97.42 0 0 1 0-16.56 95.85 95.85 0 0 1 4.3-15.86 104.83 104.83 0 0 1 8-13.61c0.86-1 1.71-2 2.61-3s1.76-1.87 2.66-2.79c1.79-1.81 3.6-3.6 5.4-5.41l28-28.07q34.26-34.33 68.51-68.69l8.23-8.25c1.9-1.89 3.89-3.69 5.9-5.46l-1.72 1.17c0.73-0.49 1.43-1 2.15-1.56l0.16-0.14c0.92-0.81 2.31-1.65 1.75-1.17 1.26-0.85 2.53-1.67 3.83-2.45 2.53-1.52 5.14-2.88 7.79-4.15a96.7 96.7 0 0 1 15.69-4.33 97.07 97.07 0 0 1 16.53 0 97.25 97.25 0 0 1 15.71 4.34c1.93 0.92 3.84 1.89 5.71 2.95 2.46 1.39 8.52 4 9.95 6.51 0.23 0.41-5.3-4.37-2.93-2.21 0.59 0.54 1.23 1 1.83 1.55q2.13 1.84 4.12 3.81l0.82 0.81c2 2 4 4 5.94 6l29 29 68 68.22c2.44 2.45 4.88 4.88 7.31 7.33l0.84 0.86q1.8 1.83 3.5 3.77c0.64 0.73 1.25 1.49 1.89 2.22 2.67 3-1.64-2.36-2-2.64 2.55 2 4.64 6.73 6.23 9.54 1.1 1.94 2.1 3.91 3 5.92a96 96 0 0 1 4.31 15.79 95.17 95.17 0 0 1 0 16.54 96.79 96.79 0 0 1-4.3 15.77 92.17 92.17 0 0 1-7.61 13.16c-0.29 0.42-0.6 0.84-0.9 1.26s-0.81 0.81-1.15 1.2a73.598 73.598 0 0 1-3.6 3.86z m5.11-5.39c0.87-1.18 1.92-2.6 1.78-2.33a9.51 9.51 0 0 1-1.8 2.33z" p-id="5157" fill="#1296db"></path><path d="M687.86 137.06l-0.42 0.31-0.43 0.39c1.37-0.95 2.07-1.47 2.34-1.7-0.5 0.33-1 0.66-1.49 1z" p-id="5158" fill="#1296db"></path></svg>