<?xml version="1.0" standalone="no"?><!DOCTYPE svg PUBLIC "-//W3C//DTD SVG 1.1//EN" "http://www.w3.org/Graphics/SVG/1.1/DTD/svg11.dtd"><svg t="1605504353564" class="icon" viewBox="0 0 1024 1024" version="1.1" xmlns="http://www.w3.org/2000/svg" p-id="6008" xmlns:xlink="http://www.w3.org/1999/xlink" width="200" height="200"><defs><style type="text/css"></style></defs><path d="M867.1232 900.5568h-224.8704c-14.1312 0-25.6-11.4688-25.6-25.6v-139.8784H456.704v139.8784c0 14.1312-11.4688 25.6-25.6 25.6H168.0384c-14.1312 0-25.6-11.4688-25.6-25.6V363.7248c0-8.8576 4.608-17.1008 12.1344-21.76L504.1152 125.952c8.2432-5.12 18.688-5.12 26.9312 0l349.5424 216.0128c7.5264 4.6592 12.1344 12.9024 12.1344 21.76v511.232c0 14.1312-11.4688 25.6-25.6 25.6z m-199.2192-51.2h173.6704V378.0096l-323.9424-200.192-323.9424 200.192v471.3472H405.504v-139.8784c0-14.1312 11.4688-25.6 25.6-25.6h211.2c14.1312 0 25.6 11.4688 25.6 25.6v139.8784z" fill="#1296db" p-id="6009"></path><path d="M325.888 641.5872h-51.2v-172.544c0-9.1648 4.864-17.5616 12.8-22.1696l171.1104-98.9696 25.6512 44.3392L325.888 483.84v157.7472z" fill="#1296db" p-id="6010"></path></svg>